Coordinates
version=1
nRows=6
nColumns=63
inDegrees=yes

Units are S.I. units (second, meters, Newtons, ...)
If the header above contains a line with 'inDegrees', this indicates whether rotational values are in degrees (yes) or radians (no).

endheader
time	pelvis_tilt	pelvis_list	pelvis_rotation	pelvis_tx	pelvis_ty	pelvis_tz	hip_flexion_r	hip_adduction_r	hip_rotation_r	knee_angle_r	knee_angle_r_beta	ankle_angle_r	subtalar_angle_r	mtp_angle_r	hip_flexion_l	hip_adduction_l	hip_rotation_l	knee_angle_l	knee_angle_l_beta	ankle_angle_l	subtalar_angle_l	mtp_angle_l	L5_S1_Flex_Ext	L5_S1_Lat_Bending	L5_S1_axial_rotation	L4_L5_Flex_Ext	L4_L5_Lat_Bending	L4_L5_axial_rotation	L3_L4_Flex_Ext	L3_L4_Lat_Bending	L3_L4_axial_rotation	L2_L3_Flex_Ext	L2_L3_Lat_Bending	L2_L3_axial_rotation	L1_L2_Flex_Ext	L1_L2_Lat_Bending	L1_L2_axial_rotation	L1_T12_Flex_Ext	L1_T12_Lat_Bending	L1_T12_axial_rotation	Abs_r3	Abs_r2	Abs_r1	Abs_t1	Abs_t2	neck_flexion	neck_bending	neck_rotation	arm_flex_r	arm_add_r	arm_rot_r	elbow_flex_r	pro_sup_r	wrist_flex_r	wrist_dev_r	arm_flex_l	arm_add_l	arm_rot_l	elbow_flex_l	pro_sup_l	wrist_flex_l	wrist_dev_l
      9.53333333	      4.32495319	     -3.04441708	    176.46374911	      2.44219141	      0.89011830	      0.61511404	     13.11765519	     -1.40079411	     -0.61872747	     23.08192010	      0.40285550	     20.33675996	    -12.00539118	      0.00000000	     10.04381999	      3.14854176	     -4.29470635	     18.06207605	      0.31524270	     17.19706608	    -13.76696237	      0.00000000	      0.00007478	     -0.38986741	     -0.27539161	      0.00013887	     -0.51852365	     -0.29260358	      0.00012285	     -0.94792361	     -0.29260358	      0.00008546	     -0.94792361	     -0.24096766	      0.00006944	     -0.79501762	     -0.22375568	      0.00004273	     -0.60390461	     -0.20654371	      0.00053412	     -4.41025809	     -1.53164551	      0.00000000	      0.00000000	     -0.00000000	      0.00000000	      0.00000000	      1.32851237	     -8.81906716	     35.36440781	     19.63273409	     54.73113987	      0.00000000	      5.00000014	     -2.47378780	    -13.49812567	     36.83591694	     19.78772523	     59.01319245	      0.00000000	      5.00000014
      9.56666667	      4.33619586	     -3.01154621	    176.36654362	      2.44225376	      0.88989090	      0.61510644	     13.38831303	     -1.59565195	     -1.61054794	     23.61349451	      0.41213323	     20.95637908	    -10.43026032	      0.00000000	     10.02966882	      2.82371317	     -4.81570068	     18.43633856	      0.32177481	     17.88168681	    -11.39627408	      0.00000000	      0.00246399	     -0.38771037	     -0.25660603	      0.00457588	     -0.51565479	     -0.27264391	      0.00404809	     -0.94267899	     -0.27264391	      0.00281610	     -0.94267899	     -0.22453028	      0.00228806	     -0.79061899	     -0.20849240	      0.00140793	     -0.60056336	     -0.19245452	      0.01760006	     -4.38585725	     -1.42716576	      0.00000000	      0.00000000	     -0.00000000	      0.00000000	      0.00000000	      1.13903782	     -9.02620777	     35.28386595	     20.22990284	     54.44181233	      0.00000000	      5.00000014	     -2.65102461	    -13.69985692	     36.81841172	     20.41131325	     58.59510052	      0.00000000	      5.00000014
      9.60000000	      4.32156316	     -2.99315365	    176.30765929	      2.44231218	      0.88987849	      0.61509700	     13.90166920	     -2.29882933	     -4.60918960	     24.81298916	      0.43306836	     22.25022261	     -5.87454778	      0.00000000	      9.62823412	      2.79109325	     -4.19379034	     17.92393685	      0.31283171	     17.72242572	    -10.73426804	      0.00000000	      0.00114702	     -0.38682220	     -0.23728540	      0.00213012	     -0.51447352	     -0.25211573	      0.00188443	     -0.94051949	     -0.25211573	      0.00131092	     -0.94051949	     -0.20762472	      0.00106512	     -0.78880782	     -0.19279438	      0.00065541	     -0.59918758	     -0.17796405	      0.00819302	     -4.37581004	     -1.31971018	      0.00000000	      0.00000000	     -0.00000000	      0.00000000	      0.00000000	      1.11448211	     -8.64915113	     33.72813498	     19.57308011	     53.86026113	      0.00000000	      5.00000014	     -2.39011965	    -13.50429881	     37.30746538	     19.59493497	     58.16014326	      0.00000000	      5.00000014
      9.63333333	      4.34248891	     -2.88664801	    176.29203663	      2.44224401	      0.88994101	      0.61429244	     14.17854144	     -2.21741767	     -4.61775877	     25.36541817	      0.44271006	     22.19868833	     -5.90620295	      0.00000000	      9.55514584	      2.76059722	     -3.37376041	     17.80183136	      0.31070057	     17.20331486	    -11.71849785	      0.00000000	      0.00169664	     -0.38419096	     -0.22361534	      0.00315083	     -0.51097397	     -0.23759130	      0.00278741	     -0.93412189	     -0.23759130	      0.00193909	     -0.93412189	     -0.19566343	      0.00157550	     -0.78344220	     -0.18168747	      0.00096946	     -0.59511179	     -0.16771151	      0.01211891	     -4.34604494	     -1.24368146	      0.00000000	      0.00000000	     -0.00000000	      0.00000000	      0.00000000	      1.15377397	     -8.59123038	     33.90571555	     19.43266069	     53.94543146	      0.00000000	      5.00000014	     -2.40306918	    -13.64359726	     37.37967726	     19.54060236	     58.11996102	      0.00000000	      5.00000014
      9.66666667	      4.35532836	     -2.79054888	    176.52397930	      2.44210127	      0.89024096	      0.61365075	     14.20480243	     -2.20928184	     -4.89714925	     25.46835604	      0.44450667	     22.10614246	     -5.60902198	      0.00000000	      9.62900518	      3.06351257	     -1.34543647	     17.70461188	      0.30900377	     15.62157184	    -15.64033376	      0.00000000	      0.00110452	     -0.38640046	     -0.26477549	      0.00205120	     -0.51391261	     -0.28132396	      0.00181461	     -0.93949408	     -0.28132396	      0.00126235	     -0.93949408	     -0.23167856	      0.00102566	     -0.78794782	     -0.21513009	      0.00063112	     -0.59853431	     -0.19858162	      0.00788946	     -4.37103928	     -1.47260186	      0.00000000	      0.00000000	     -0.00000000	      0.00000000	      0.00000000	      2.02946928	     -9.28859893	     40.70283286	     19.26256920	     57.01855313	      0.00000000	      5.00000014	     -2.44836036	    -13.91015744	     37.95159352	     19.65679731	     57.84529805	      0.00000000	      5.00000014
      9.70000000	      4.39323925	     -2.64247588	    176.74194074	      2.44200551	      0.89059624	      0.61281327	     14.22459741	     -2.05964204	     -4.82852676	     25.44405854	      0.44408260	     21.86994346	     -5.59828121	      0.00000000	      9.80835169	      2.96903149	     -1.84316783	     17.73434835	      0.30952277	     15.25571025	    -16.18173413	      0.00000000	      0.00112978	     -0.38188679	     -0.29867330	      0.00209811	     -0.50790944	     -0.31734038	      0.00185611	     -0.92851955	     -0.31734038	      0.00129122	     -0.92851955	     -0.26133914	      0.00104911	     -0.77874355	     -0.24267205	      0.00064556	     -0.59154264	     -0.22400497	      0.00806990	     -4.31997979	     -1.66113128	      0.00000000	      0.00000000	     -0.00000000	      0.00000000	      0.00000000	      2.05759445	     -9.24096386	     40.82375395	     19.34647561	     57.06293713	      0.00000000	      5.00000014	     -2.52724710	    -14.10626810	     37.94622400	     19.69174992	     57.83853090	      0.00000000	      5.00000014
